name rise42.5664peak47.7979fall81.9185.mot
datacolumns 19
datarows 33
range 0.55666600000000 0.61000300000000
endheader
time	ground_force1_vx	ground_force1_vy	ground_force1_vz	ground_force1_px	ground_force1_py	ground_force1_pz	ground_force2_vx	ground_force2_vy	ground_force2_vz	ground_force2_px	ground_force2_py	ground_force2_pz	ground_torque1_x	ground_torque1_y	ground_torque1_z	ground_torque2_x	ground_torque2_y	ground_torque2_z	
0.55666600000000	52.23933300000000	758.28453300000001	50.43417900000000	0.24155600000000	0.00000000000000	0.09625000000000	1.13482000000000	3.39679800000000	0.30770600000000	0.00000000000000	0.00000000000000	0.00000000000000	0.00000000000000	13.21750800000000	0.00000000000000	0.00000000000000	0.11274100000000	0.00000000000000	
0.55833100000000	51.58014400000000	761.36597700000004	50.59271100000000	0.24071800000000	0.00000000000000	0.09631400000000	0.00000000000000	0.00000000000000	0.00000000000000	0.00000000000000	0.00000000000000	0.00000000000000	0.00000000000000	13.26997800000000	0.00000000000000	0.00000000000000	0.00000000000000	0.00000000000000	
0.56000100000000	50.91389800000000	764.28774199999998	50.74452700000000	0.23988200000000	0.00000000000000	0.09637900000000	0.00000000000000	0.00000000000000	0.00000000000000	0.00000000000000	0.00000000000000	0.00000000000000	0.00000000000000	13.32093200000000	0.00000000000000	0.00000000000000	0.00000000000000	0.00000000000000	
0.56166300000000	50.24131300000000	767.04758200000003	50.88951500000000	0.23904700000000	0.00000000000000	0.09644700000000	0.00000000000000	0.00000000000000	0.00000000000000	0.00000000000000	0.00000000000000	0.00000000000000	0.00000000000000	13.37027800000000	0.00000000000000	0.00000000000000	0.00000000000000	0.00000000000000	
0.56333200000000	49.56306600000000	769.64347699999996	51.02751800000000	0.23821100000000	0.00000000000000	0.09651700000000	0.00000000000000	0.00000000000000	0.00000000000000	0.00000000000000	0.00000000000000	0.00000000000000	0.00000000000000	13.41790400000000	0.00000000000000	0.00000000000000	0.00000000000000	0.00000000000000	
0.56499700000000	48.87979500000000	772.07364600000005	51.15833700000000	0.23737200000000	0.00000000000000	0.09659000000000	0.00000000000000	0.00000000000000	0.00000000000000	0.00000000000000	0.00000000000000	0.00000000000000	0.00000000000000	13.46368700000000	0.00000000000000	0.00000000000000	0.00000000000000	0.00000000000000	
0.56666400000000	48.19210000000000	774.33655999999996	51.28173600000000	0.23653000000000	0.00000000000000	0.09666400000000	0.00000000000000	0.00000000000000	0.00000000000000	0.00000000000000	0.00000000000000	0.00000000000000	0.00000000000000	13.50749000000000	0.00000000000000	0.00000000000000	0.00000000000000	0.00000000000000	
0.56833000000000	47.50054400000000	776.43095800000003	51.39744300000000	0.23568200000000	0.00000000000000	0.09674100000000	0.00000000000000	0.00000000000000	0.00000000000000	0.00000000000000	0.00000000000000	0.00000000000000	0.00000000000000	13.54916700000000	0.00000000000000	0.00000000000000	0.00000000000000	0.00000000000000	
0.56999300000000	46.80565500000000	778.35584900000003	51.50515900000000	0.23482800000000	0.00000000000000	0.09682000000000	0.00000000000000	0.00000000000000	0.00000000000000	0.00000000000000	0.00000000000000	0.00000000000000	0.00000000000000	13.58856300000000	0.00000000000000	0.00000000000000	0.00000000000000	0.00000000000000	
0.57166200000000	46.10792900000000	780.11053100000004	51.60455700000000	0.23396500000000	0.00000000000000	0.09690200000000	0.00000000000000	0.00000000000000	0.00000000000000	0.00000000000000	0.00000000000000	0.00000000000000	0.00000000000000	13.62551900000000	0.00000000000000	0.00000000000000	0.00000000000000	0.00000000000000	
0.57333500000000	45.40782900000000	781.69459700000004	51.69529100000000	0.23309300000000	0.00000000000000	0.09698700000000	0.00000000000000	0.00000000000000	0.00000000000000	0.00000000000000	0.00000000000000	0.00000000000000	0.00000000000000	13.65986800000000	0.00000000000000	0.00000000000000	0.00000000000000	0.00000000000000	
0.57499800000000	44.70579300000000	783.10794199999998	51.77699700000000	0.23221000000000	0.00000000000000	0.09707400000000	0.00000000000000	0.00000000000000	0.00000000000000	0.00000000000000	0.00000000000000	0.00000000000000	0.00000000000000	13.69144500000000	0.00000000000000	0.00000000000000	0.00000000000000	0.00000000000000	
0.57667300000000	44.00223000000000	784.35077200000001	51.84930100000000	0.23131600000000	0.00000000000000	0.09716400000000	0.00000000000000	0.00000000000000	0.00000000000000	0.00000000000000	0.00000000000000	0.00000000000000	0.00000000000000	13.72008300000000	0.00000000000000	0.00000000000000	0.00000000000000	0.00000000000000	
0.57833000000000	43.29752600000000	785.42360900000006	51.91182100000000	0.23040900000000	0.00000000000000	0.09725600000000	0.00000000000000	0.00000000000000	0.00000000000000	0.00000000000000	0.00000000000000	0.00000000000000	0.00000000000000	13.74561800000000	0.00000000000000	0.00000000000000	0.00000000000000	0.00000000000000	
0.57999900000000	42.59204400000000	786.32729800000004	51.96417600000000	0.22948800000000	0.00000000000000	0.09735100000000	0.00000000000000	0.00000000000000	0.00000000000000	0.00000000000000	0.00000000000000	0.00000000000000	0.00000000000000	13.76789100000000	0.00000000000000	0.00000000000000	0.00000000000000	0.00000000000000	
0.58168000000000	41.88613000000000	787.06300799999997	52.00598500000000	0.22855200000000	0.00000000000000	0.09744900000000	0.00000000000000	0.00000000000000	0.00000000000000	0.00000000000000	0.00000000000000	0.00000000000000	0.00000000000000	13.78674800000000	0.00000000000000	0.00000000000000	0.00000000000000	0.00000000000000	
0.58333000000000	41.18010900000000	787.63223400000004	52.03687800000000	0.22760100000000	0.00000000000000	0.09754900000000	0.00000000000000	0.00000000000000	0.00000000000000	0.00000000000000	0.00000000000000	0.00000000000000	0.00000000000000	13.80204300000000	0.00000000000000	0.00000000000000	0.00000000000000	0.00000000000000	
0.58499300000000	40.47429500000000	788.03680299999996	52.05649600000000	0.22663400000000	0.00000000000000	0.09765300000000	0.00000000000000	0.00000000000000	0.00000000000000	0.00000000000000	0.00000000000000	0.00000000000000	0.00000000000000	13.81364300000000	0.00000000000000	0.00000000000000	0.00000000000000	0.00000000000000	
0.58665900000000	39.76898700000000	788.27886899999999	52.06450000000000	0.22565000000000	0.00000000000000	0.09775800000000	0.00000000000000	0.00000000000000	0.00000000000000	0.00000000000000	0.00000000000000	0.00000000000000	0.00000000000000	13.82142400000000	0.00000000000000	0.00000000000000	0.00000000000000	0.00000000000000	
0.58833400000000	39.06447300000000	788.36091399999998	52.06057100000000	0.22464800000000	0.00000000000000	0.09786700000000	0.00000000000000	0.00000000000000	0.00000000000000	0.00000000000000	0.00000000000000	0.00000000000000	0.00000000000000	13.82527500000000	0.00000000000000	0.00000000000000	0.00000000000000	0.00000000000000	
0.59000000000000	38.36103400000000	788.28574800000001	52.04441800000000	0.22363000000000	0.00000000000000	0.09797800000000	0.00000000000000	0.00000000000000	0.00000000000000	0.00000000000000	0.00000000000000	0.00000000000000	0.00000000000000	13.82510300000000	0.00000000000000	0.00000000000000	0.00000000000000	0.00000000000000	
0.59166800000000	37.65894500000000	788.05649900000003	52.01578000000000	0.22259300000000	0.00000000000000	0.09809200000000	0.00000000000000	0.00000000000000	0.00000000000000	0.00000000000000	0.00000000000000	0.00000000000000	0.00000000000000	13.82082900000000	0.00000000000000	0.00000000000000	0.00000000000000	0.00000000000000	
0.59333100000000	36.95847400000000	787.67661499999997	51.97443000000000	0.22153800000000	0.00000000000000	0.09820800000000	0.00000000000000	0.00000000000000	0.00000000000000	0.00000000000000	0.00000000000000	0.00000000000000	0.00000000000000	13.81239200000000	0.00000000000000	0.00000000000000	0.00000000000000	0.00000000000000	
0.59499300000000	36.25988700000000	787.14985300000001	51.92018000000000	0.22046600000000	0.00000000000000	0.09832700000000	0.00000000000000	0.00000000000000	0.00000000000000	0.00000000000000	0.00000000000000	0.00000000000000	0.00000000000000	13.79974900000000	0.00000000000000	0.00000000000000	0.00000000000000	0.00000000000000	
0.59666800000000	35.56344900000000	786.48027400000001	51.85288400000000	0.21937500000000	0.00000000000000	0.09844800000000	0.00000000000000	0.00000000000000	0.00000000000000	0.00000000000000	0.00000000000000	0.00000000000000	0.00000000000000	13.78287700000000	0.00000000000000	0.00000000000000	0.00000000000000	0.00000000000000	
0.59833200000000	34.86942400000000	785.67223500000000	51.77243900000000	0.21826700000000	0.00000000000000	0.09857200000000	0.00000000000000	0.00000000000000	0.00000000000000	0.00000000000000	0.00000000000000	0.00000000000000	0.00000000000000	13.76177500000000	0.00000000000000	0.00000000000000	0.00000000000000	0.00000000000000	
0.60000200000000	34.17807700000000	784.73037599999998	51.67878900000000	0.21714100000000	0.00000000000000	0.09869700000000	0.00000000000000	0.00000000000000	0.00000000000000	0.00000000000000	0.00000000000000	0.00000000000000	0.00000000000000	13.73646000000000	0.00000000000000	0.00000000000000	0.00000000000000	0.00000000000000	
0.60166800000000	33.48967500000000	783.65961400000003	51.57192800000000	0.21599800000000	0.00000000000000	0.09882600000000	0.00000000000000	0.00000000000000	0.00000000000000	0.00000000000000	0.00000000000000	0.00000000000000	0.00000000000000	13.70697000000000	0.00000000000000	0.00000000000000	0.00000000000000	0.00000000000000	
0.60333300000000	32.80448800000000	782.46512499999994	51.45190100000000	0.21483900000000	0.00000000000000	0.09895600000000	0.00000000000000	0.00000000000000	0.00000000000000	0.00000000000000	0.00000000000000	0.00000000000000	0.00000000000000	13.67336800000000	0.00000000000000	0.00000000000000	0.00000000000000	0.00000000000000	
0.60500000000000	32.12278900000000	781.15233799999999	51.31880700000000	0.21366400000000	0.00000000000000	0.09908800000000	0.00000000000000	0.00000000000000	0.00000000000000	0.00000000000000	0.00000000000000	0.00000000000000	0.00000000000000	13.63573500000000	0.00000000000000	0.00000000000000	0.00000000000000	0.00000000000000	
0.60666300000000	31.44485500000000	779.72691599999996	51.17279700000000	0.21247500000000	0.00000000000000	0.09922200000000	0.00000000000000	0.00000000000000	0.00000000000000	0.00000000000000	0.00000000000000	0.00000000000000	0.00000000000000	13.59417300000000	0.00000000000000	0.00000000000000	0.00000000000000	0.00000000000000	
0.60833200000000	30.77096700000000	778.19474200000002	51.01407700000000	0.21127100000000	0.00000000000000	0.09935800000000	0.00000000000000	0.00000000000000	0.00000000000000	0.00000000000000	0.00000000000000	0.00000000000000	0.00000000000000	13.54880800000000	0.00000000000000	0.00000000000000	0.00000000000000	0.00000000000000	
0.61000300000000	30.10141000000000	776.56190500000002	50.84290800000000	0.21005300000000	0.00000000000000	0.09949600000000	0.00000000000000	0.00000000000000	0.00000000000000	0.00000000000000	0.00000000000000	0.00000000000000	0.00000000000000	13.49978300000000	0.00000000000000	0.00000000000000	0.00000000000000	0.00000000000000	
